# xmcd
#
# Track frame offsets:
#	150
#	18587
#	39942
#	60902
#	80720
#	101000
#	119797
#	138820
#	161625
#	180525
#
# Disc length: 2700 seconds
#
# Revision: 0
# Processed by: cddbd v1.5PL3 Copyright (c) Steve Scherf et al.
# Submitted via: dBpowerAMP V4.0
#
DISCID=7e0a8a0a
DTITLE=T.K. Soul - The Bad Boy of Southern Soul
DYEAR=2004
DGENRE=Southern Soul
TTITLE0=Shake It Down
TTITLE1=My Kind of Girl
TTITLE2=A Little Love
TTITLE3=Sprung
TTITLE4=Party Til You Can't No More
TTITLE5=Where Jody Stay
TTITLE6=Bedroom Conversation
TTITLE7=Lover for Life
TTITLE8=She's A Player
TTITLE9=Rain
EXTD=
EXTT0=
EXTT1=
EXTT2=
EXTT3=
EXTT4=
EXTT5=
EXTT6=
EXTT7=
EXTT8=
EXTT9=
PLAYORDER=
